#!OML:ASF F:\twosubjects\two\Thursday\Session 1\justin.ASF
:FULLY-SPECIFIED
:DEGREES
457
root -6.51595 18.1204 3.7919 -527.588 -28.6721 537.381
lowerback 0.585227 -1.71569 -5.37037
upperback 0.881442 -2.35774 3.29002
thorax 0.938973 -1.25825 6.42582
lowerneck -18.5297 -8.65121 -13.1762
upperneck 24.0021 -11.8436 10.0868
head 12.4459 -5.52392 3.94493
rclavicle 1.55052e-014 6.36111e-015
rhumerus -23.7305 -12.3379 -80.6406
rradius 26.2153
rwrist -1.50267
rhand -14.552 11.1038
rfingers 7.12502
rthumb 11.5968 -18.5553
lclavicle 1.55052e-014 6.36111e-015
lhumerus -22.5259 -5.36997 88.8212
lradius 34.4081
lwrist -0.196363
lhand -10.496 38.4828
lfingers 7.12502
lthumb 15.506 67.881
rfemur -33.9942 -7.66979 19.3599
rtibia 25.8454
rfoot -2.15964 -13.1753
rtoes 7.24616
lfemur 7.30225 5.31552 -18.8686
ltibia 10.4795
lfoot -3.83335 11.3333
ltoes -27.6902
458
root -6.52462 18.1351 3.6837 -527.413 -28.4326 537.288
lowerback 0.494481 -1.68339 -5.52506
upperback 0.767384 -2.30936 3.32181
thorax 0.87247 -1.22909 6.54803
lowerneck -18.5345 -8.67968 -13.3458
upperneck 24.1417 -11.942 10.3183
head 12.5458 -5.56232 4.04412
rclavicle 4.77083e-015 -1.03368e-014
rhumerus -23.805 -12.6681 -80.5267
rradius 26.0999
rwrist -1.25681
rhand -14.6685 11.4505
rfingers 7.12502
rthumb 11.4845 -18.215
lclavicle 4.77083e-015 -1.03368e-014
lhumerus -23.08 -5.78301 89.2571
lradius 34.0549
lwrist 0.0833253
lhand -10.4991 37.7947
lfingers 7.12502
lthumb 15.503 67.1932
rfemur -33.8569 -7.44011 19.3953
rtibia 25.9954
rfoot -2.67362 -13.1524
rtoes 7.1616
lfemur 6.8462 5.60222 -18.7911
ltibia 11.51
lfoot -2.75614 9.28393
ltoes -29.3878
459
root -6.53477 18.1566 3.568 -527.382 -28.1783 537.144
lowerback 0.43913 -1.64711 -5.71325
upperback 0.80972 -2.25868 3.3426
thorax 0.94819 -1.20926 6.67635
lowerneck -18.6698 -8.64947 -13.6042
upperneck 24.2791 -11.9269 10.6412
head 12.6693 -5.54105 4.21321
rclavicle 2.52457e-014 -6.59965e-014
rhumerus -23.5665 -12.8267 -80.4796
rradius 25.9759
rwrist -1.36901
rhand -14.6459 11.5238
rfingers 7.12502
rthumb 11.5063 -18.1404
lclavicle 2.52457e-014 -6.59965e-014
lhumerus -23.6172 -6.56504 89.7436
lradius 33.9422
lwrist 0.41188
lhand -9.99765 38.064
lfingers 7.12502
lthumb 15.9859 67.4244
rfemur -33.4425 -7.12718 19.3266
rtibia 26.0701
rfoot -3.22786 -13.2021
rtoes 6.93207
lfemur 6.55445 5.88134 -18.7034
ltibia 12.6627
lfoot -2.15908 9.7423
ltoes -31.6239
460
root -6.54681 18.1794 3.45914 -527.172 -27.8797 536.696
lowerback 0.469708 -1.68508 -6.07157
upperback 0.867721 -2.30791 3.28606
thorax 1.01168 -1.23963 6.8216
lowerneck -18.9642 -8.62038 -13.4472
upperneck 24.3554 -11.7897 10.3346
head 12.7041 -5.48588 4.08837
rclavicle 6.69904e-014 -1.35174e-014
rhumerus -23.1745 -12.5528 -80.6131
rradius 25.8522
rwrist -1.78872
rhand -14.548 11.0321
rfingers 7.12502
rthumb 11.6007 -18.6268
lclavicle 6.69904e-014 -1.35174e-014
lhumerus -24.1575 -7.26311 90.1793
lradius 33.8617
lwrist 0.612277
lhand -10.0066 37.8746
lfingers 7.12502
lthumb 15.9773 67.2357
rfemur -33.0698 -6.9535 18.9592
rtibia 26.0495
rfoot -3.3259 -13.1165
rtoes 6.11213
lfemur 6.11271 5.94607 -18.9676
ltibia 14.0018
lfoot -1.81027 9.46619
ltoes -29.7978
461
root -6.55677 18.1955 3.35898 -527.227 -27.6167 536.818
lowerback 0.606832 -1.77566 -5.87085
upperback 1.00276 -2.44563 3.44841
thorax 1.0955 -1.31933 6.87824
lowerneck -19.6262 -8.67054 -13.3752
upperneck 24.3628 -11.5892 9.85249
head 12.7708 -5.40722 3.91123
rclavicle 8.15017e-015 -3.97569e-015
rhumerus -22.6145 -11.8851 -80.7793
rradius 25.741
rwrist -1.63873
rhand -14.5237 10.7805
rfingers 7.12502
rthumb 11.6241 -18.877
lclavicle 8.15017e-015 -3.97569e-015
lhumerus -24.2935 -7.11662 90.5548
lradius 33.5154
lwrist -0.156348
lhand -9.57324 37.9539
lfingers 7.12502
lthumb 16.3946 67.281
rfemur -32.7286 -6.67199 19.1471
rtibia 25.99
rfoot -3.22044 -13.0771
rtoes 5.20388
lfemur 5.55982 6.12319 -18.6693
ltibia 15.4309
lfoot -1.18587 9.2084
ltoes -28.7564
462
root -6.56897 18.2071 3.25741 -527.476 -27.3791 537.27
lowerback 0.556831 -1.40015 -5.66357
upperback 0.339066 -1.93387 3.42903
thorax 0.344516 -1.0099 6.75516
lowerneck -16.3823 -8.51432 -13.0006
upperneck 23.4638 -11.9768 9.93232
head 11.8006 -5.69157 3.88853
rclavicle -1.47101e-014 5.40694e-014
rhumerus -24.3782 -12.8144 -80.2321
rradius 25.8903
rwrist -1.27425
rhand -14.8046 11.2944
rfingers 7.12502
rthumb 11.3532 -18.3782
lclavicle -1.47101e-014 5.40694e-014
lhumerus -26.3933 -8.93548 91.3608
lradius 33.4626
lwrist -0.538943
lhand -8.55558 38.0977
lfingers 7.12502
lthumb 17.3742 67.3412
rfemur -32.3472 -6.64939 19.7837
rtibia 25.9348
rfoot -3.30075 -12.7766
rtoes 4.63576
lfemur 5.02705 6.43886 -18.0411
ltibia 16.908
lfoot -0.437997 8.94692
ltoes -28.4047
463
root -6.58083 18.2197 3.15033 -527.469 -27.1621 537.352
lowerback 0.490591 -1.70739 -5.50138
upperback 0.86475 -2.36115 3.73646
thorax 1.0006 -1.27233 6.97146
lowerneck -18.9179 -8.63241 -13.5513
upperneck 24.2849 -11.6439 9.94869
head 12.6238 -5.47369 3.98374
rclavicle -1.31198e-014 6.44062e-014
rhumerus -22.6465 -11.9003 -80.5853
rradius 25.5746
rwrist -1.18541
rhand -15.1527 11.6171
rfingers 7.12502
rthumb 11.0175 -18.0737
lclavicle -1.31198e-014 6.44062e-014
lhumerus -25.8721 -8.68195 91.6739
lradius 33.2678
lwrist -0.684488
lhand -8.03686 37.2609
lfingers 7.12502
lthumb 17.8734 66.4595
rfemur -32.0496 -6.93138 20.1369
rtibia 25.8863
rfoot -3.43583 -12.2456
rtoes 4.26173
lfemur 4.37705 6.65671 -17.7779
ltibia 18.4442
lfoot 0.13401 8.59117
ltoes -27.9441
464
root -6.59299 18.2318 3.04428 -527.404 -26.993 537.461
lowerback 0.359595 -1.62219 -5.43915
upperback 0.314508 -2.23133 3.66661
thorax 0.477982 -1.16751 6.86928
lowerneck -16.6915 -8.34988 -13.149
upperneck 23.7793 -11.6714 9.81895
head 11.9433 -5.57502 3.91927
rclavicle 6.4605e-014 -1.51076e-014
rhumerus -23.9098 -12.0362 -80.445
rradius 25.9075
rwrist -1.00251
rhand -15.1232 11.3343
rfingers 7.12502
rthumb 11.0459 -18.3551
lclavicle 6.4605e-014 -1.51076e-014
lhumerus -27.7 -10.3487 92.427
lradius 33.2919
lwrist -1.42732
lhand -7.0444 37.4994
lfingers 7.12502
lthumb 18.8281 66.6081
rfemur -31.847 -7.11336 20.4602
rtibia 25.8908
rfoot -3.8811 -11.8586
rtoes 4.45416
lfemur 3.60935 6.92934 -17.4894
ltibia 19.9858
lfoot 0.980576 7.91903
ltoes -29.0096
465
root -6.61195 18.2425 2.94811 -527.446 -26.8025 537.675
lowerback 0.543219 -1.5321 -4.70995
upperback 0.703561 -2.12515 3.62407
thorax 0.730852 -1.13281 6.40457
lowerneck -18.8545 -8.70212 -13.0892
upperneck 24.4425 -11.825 9.56445
head 12.6364 -5.56469 3.72713
rclavicle 4.07509e-014 -9.54166e-015
rhumerus -22.6352 -12.192 -80.6938
rradius 25.6998
rwrist -0.737422
rhand -15.0148 11.3594
rfingers 7.12502
rthumb 11.1505 -18.3244
lclavicle 4.07509e-014 -9.54166e-015
lhumerus -27.1872 -11.4475 92.7839
lradius 33.1908
lwrist -3.0219
lhand -4.68167 38.4872
lfingers 7.12502
lthumb 21.0992 67.3592
rfemur -31.6083 -7.29321 20.8477
rtibia 25.932
rfoot -4.48839 -11.5389
rtoes 4.41164
lfemur 2.8658 7.35008 -17.127
ltibia 21.5246
lfoot 1.91484 7.31298
ltoes -29.5545
466
root -6.62872 18.2526 2.85449 -527.511 -26.5471 537.636
lowerback 0.796499 -1.4662 -4.60604
upperback 0.556258 -2.04253 3.59011
thorax 0.419253 -1.07619 6.32008
lowerneck -18.5769 -8.57185 -13.079
upperneck 24.5947 -11.7285 9.55856
head 12.6259 -5.54362 3.75116
rclavicle 4.77083e-014 -3.02153e-014
rhumerus -22.7748 -12.0653 -80.6955
rradius 25.7533
rwrist -1.01632
rhand -15.1381 11.6648
rfingers 7.12502
rthumb 11.0315 -18.0253
lclavicle 4.77083e-014 -3.02153e-014
lhumerus -28.114 -12.3972 93.4283
lradius 33.2007
lwrist -4.35782
lhand -3.50876 38.1299
lfingers 7.12502
lthumb 22.2256 66.872
rfemur -31.1922 -7.25073 20.8916
rtibia 25.9147
rfoot -4.85445 -11.4555
rtoes 3.61815
lfemur 2.24594 7.66934 -16.9928
ltibia 23.0861
lfoot 2.8082 6.92739
ltoes -28.3214
